<svg width="42" height="30" viewBox="0 0 42 30" fill="none" xmlns="http://www.w3.org/2000/svg">
<path d="M6.30827 30C4.55539 30 3.06686 29.3878 1.84268 28.1633C0.618504 26.9389 0.00427672 25.4426 0 23.6745C0 23.4087 0.0102742 23.1532 0.0308225 22.908C0.0514042 22.6628 0.0951068 22.3949 0.161931 22.1045L4.37182 5.26492C4.77427 3.71621 5.59899 2.45156 6.84599 1.47096C8.09299 0.490318 9.51864 0 11.1229 0H30.6689C32.2706 0 33.694 0.490954 34.9391 1.47286C36.1841 2.45477 37.0231 3.71879 37.456 5.26492L41.6659 22.1045C41.7327 22.3907 41.7847 22.6654 41.822 22.9286C41.8593 23.1918 41.8779 23.4582 41.8779 23.7279C41.8779 25.4941 41.2527 26.9809 40.0024 28.1885C38.752 29.3962 37.2455 30 35.4828 30C34.2662 30 33.149 29.6826 32.1312 29.0478C31.1135 28.4129 30.338 27.5534 29.8046 26.4693L28.3628 23.5239C28.1148 23.0189 27.7419 22.6355 27.244 22.3737C26.7462 22.112 26.2172 21.9812 25.6571 21.9812H16.1347C15.5813 21.9812 15.0539 22.1088 14.5528 22.3641C14.0516 22.6194 13.689 23.006 13.465 23.5239L12.0197 26.4693C11.4904 27.5791 10.7077 28.4451 9.67168 29.0671C8.63564 29.689 7.51451 30 6.30827 30ZM23.9093 12.3431C24.279 12.3431 24.5988 12.2121 24.8687 11.95C25.1386 11.6879 25.2735 11.372 25.2735 11.0023C25.2735 10.6325 25.1365 10.3127 24.8624 10.0429C24.5883 9.77298 24.2664 9.63805 23.8967 9.63805C23.5269 9.63805 23.2131 9.77509 22.9552 10.0492C22.6974 10.3232 22.5684 10.6451 22.5684 11.0149C22.5684 11.3846 22.6995 11.6984 22.9616 11.9563C23.2236 12.2142 23.5396 12.3431 23.9093 12.3431ZM27.9187 8.33368C28.2884 8.33368 28.6082 8.20264 28.8781 7.94056C29.148 7.67848 29.2829 7.36257 29.2829 6.99283C29.2829 6.6231 29.1459 6.3033 28.8718 6.03343C28.5977 5.76356 28.2758 5.62863 27.9061 5.62863C27.5363 5.62863 27.2225 5.76567 26.9647 6.03974C26.7068 6.31382 26.5779 6.63573 26.5779 7.00546C26.5779 7.3752 26.7089 7.689 26.971 7.94687C27.2331 8.20475 27.549 8.33368 27.9187 8.33368ZM27.9187 16.3525C28.2884 16.3525 28.6082 16.2215 28.8781 15.9594C29.148 15.6973 29.2829 15.3814 29.2829 15.0117C29.2829 14.6419 29.1459 14.3221 28.8718 14.0523C28.5977 13.7824 28.2758 13.6475 27.9061 13.6475C27.5363 13.6475 27.2225 13.7845 26.9647 14.0586C26.7068 14.3327 26.5779 14.6546 26.5779 15.0243C26.5779 15.394 26.7089 15.7078 26.971 15.9657C27.2331 16.2236 27.549 16.3525 27.9187 16.3525ZM31.9281 12.3431C32.2979 12.3431 32.6177 12.2121 32.8875 11.95C33.1574 11.6879 33.2923 11.372 33.2923 11.0023C33.2923 10.6325 33.1553 10.3127 32.8812 10.0429C32.6071 9.77298 32.2852 9.63805 31.9155 9.63805C31.5458 9.63805 31.232 9.77509 30.9741 10.0492C30.7162 10.3232 30.5873 10.6451 30.5873 11.0149C30.5873 11.3846 30.7183 11.6984 30.9804 11.9563C31.2425 12.2142 31.5584 12.3431 31.9281 12.3431ZM13.8728 15.2743C14.0903 15.2743 14.2824 15.2033 14.4489 15.0611C14.6154 14.919 14.6986 14.7376 14.6986 14.5168V11.7661H17.3877C17.6001 11.7661 17.7897 11.6954 17.9566 11.5539C18.1235 11.4123 18.2069 11.2328 18.2069 11.0152C18.2069 10.7976 18.1235 10.6056 17.9566 10.4391C17.7897 10.2726 17.6001 10.1893 17.3877 10.1893H14.6986V7.50033C14.6986 7.28793 14.6147 7.09828 14.4468 6.93139C14.2789 6.76453 14.0862 6.6811 13.8686 6.6811C13.651 6.6811 13.4722 6.76453 13.3321 6.93139C13.192 7.09828 13.1219 7.28793 13.1219 7.50033V10.1893H10.3712C10.1504 10.1893 9.96898 10.2733 9.82684 10.4412C9.68471 10.6091 9.61364 10.8018 9.61364 11.0194C9.61364 11.2369 9.68471 11.4158 9.82684 11.5559C9.96898 11.696 10.1504 11.7661 10.3712 11.7661H13.1219V14.5168C13.1219 14.7376 13.1926 14.919 13.3341 15.0611C13.4757 15.2033 13.6552 15.2743 13.8728 15.2743Z" fill="#737373"/>
</svg>
