<svg width="27" height="30" viewBox="0 0 27 30" fill="none" xmlns="http://www.w3.org/2000/svg">
<path d="M2.54826 30C1.89057 30 1.32704 29.7653 0.857666 29.2959C0.388265 28.8265 0.153564 28.2631 0.153564 27.6058V8.91429C0.153564 8.2569 0.388265 7.69351 0.857666 7.22411C1.32704 6.75474 1.89255 6.52005 2.5542 6.52005H6.98003C6.98003 4.70023 7.6025 3.15861 8.84744 1.89518C10.0924 0.631727 11.6214 0 13.4346 0C15.2477 0 16.7986 0.631884 18.0872 1.89565C19.3758 3.15938 20.0201 4.70085 20.0201 6.52005H24.446C25.1076 6.52005 25.6731 6.75474 26.1425 7.22411C26.6119 7.69351 26.8466 8.2569 26.8466 8.91429V27.6058C26.8466 28.2631 26.6119 28.8265 26.1425 29.2959C25.6731 29.7653 25.1096 30 24.4519 30H2.54826ZM8.3449 6.52005H18.6553C18.6553 5.08938 18.1542 3.87252 17.1521 2.86947C16.1499 1.8664 14.9331 1.36487 13.5015 1.36487C12.0699 1.36487 10.8525 1.86606 9.84946 2.86846C8.84642 3.87086 8.3449 5.08806 8.3449 6.52005ZM13.5087 16.2057C15.2444 16.2057 16.7724 15.5875 18.0926 14.351C19.4129 13.1146 20.0789 11.7307 20.0908 10.1995C20.0908 10.0488 20.0236 9.91287 19.8891 9.7918C19.7545 9.67069 19.5842 9.61014 19.3779 9.61014C19.2167 9.61014 19.0686 9.67901 18.9337 9.81675C18.7988 9.95451 18.7204 10.1076 18.6984 10.2759C18.533 11.5857 17.9568 12.674 16.97 13.5408C15.9831 14.4075 14.8309 14.8409 13.5135 14.8409C12.1962 14.8409 11.047 14.4075 10.0661 13.5408C9.08514 12.674 8.50601 11.5857 8.32869 10.2759C8.30676 10.123 8.22149 9.97384 8.0729 9.82836C7.92428 9.68288 7.77197 9.61014 7.61597 9.61014C7.42866 9.61014 7.26704 9.67069 7.13109 9.7918C6.99515 9.91287 6.92718 10.0488 6.92718 10.1995C6.92718 11.7307 7.58552 13.1146 8.90219 14.351C10.2189 15.5875 11.7544 16.2057 13.5087 16.2057Z" fill="#D7FF32"/>
</svg>
