<?xml version="1.0" encoding="UTF-8"?>
<svg id="svg2" xmlns="http://www.w3.org/2000/svg" version="1.1" xmlns:svg="http://www.w3.org/2000/svg" viewBox="0 0 600 175">
  <defs>
    <style>
      .cls-1 {
        fill: #fff;
        stroke-width: 0px;
      }
    </style>
  </defs>
  <g id="layer1">
    <path id="path1933" class="cls-1" d="M94.7,155.9c-.8-.4-2.1-1.2-2.7-1.7-2.1-1.7-3.7-5.4-2.9-6.9.3-.5.5-.6,2.7-.6s2.8.1,3.4,1.8c.6,1.7,1.4,2.5,3.2,3.2,3.8,1.3,6.9.2,8.1-3,.9-2.3.9-3.9-.1-5.4-1.6-2.4-2.7-2.9-6.6-3.2-1.1,0-2-.3-2.1-.5-.3-.5-.3-2.9,0-3.6.2-.3.6-.5.9-.5,1.1,0,4.2-1,5.2-1.7,1.7-1.1,2.7-3.8,2.2-5.7-.3-1.3-1.4-2.3-3.4-3.3-3.3-1.6-6.7-.2-8.4,3.3l-.7,1.5h-2c-1.1,0-2.2-.1-2.4-.3-1.1-.7,0-4.3,1.9-6.2,1.4-1.5,2.3-2,5-2.8,2.1-.7,2.6-.7,5.1-.6,1.8,0,3.3.4,4.3.7,1.7.6,4.3,2.6,4.8,3.6.2.4.4.8.5.8.4.3,1.1,3.2,1.1,4.3,0,2.7-1.5,5.8-3.2,7-.6.4-1,.8-1,1,0,.3.5.8,1.4,1.2,1.3.7,2,1.4,2.8,3.2.1.3.4.7.5,1.1.2.3.4,1.7.5,3.1.1,2.2,0,2.6-.6,4.4-.7,1.9-2.5,4-3.9,4.7-3.1,1.6-3.2,1.6-7.8,1.6-4.3,0-4.5,0-6-.7ZM270.7,155.5c-.9-.3-1.9-.8-2.2-1.1-.3-.3-.9-.7-1.2-1-.4-.3-.8-.6-.9-.6s-.2-.2-.2-.3-.3-.7-.8-1.2c-1.6-1.7-3.3-5.6-3.8-8.4-.3-2-.5-8.7-.2-9.9.2-.7.3-1.6.4-2,.3-1.6,2.7-6.1,4.2-7.9,2.9-3.3,8.6-4.4,12.4-2.5,1.4.7,4.2,3.2,4.6,4.1,0,.2.5.9,1,1.6.9,1.3,1.3,2.1,1.7,3.5,1,3,1,3.4,1,8.7,0,4.9,0,5.6-.7,7.3-.4,1.1-1,2.5-1.4,3.3-.4.7-.8,1.4-.8,1.5,0,.4-2.1,2.5-2.4,2.5s-.3.1-.3.3c0,.4-2.5,1.8-4.2,2.3-2,.6-4.2.6-6.2-.2ZM277,151.1c1.5-.8,3.5-3.8,3.5-5.1s.1-.5.2-.6c.4-.3.6-2.9.6-7.1,0-4.1,0-4.8-.6-6.7-1.4-5.4-4.1-8.3-7.4-7.7-2,.3-3.4,1.7-4.7,4.4-1.3,2.7-1.7,5.3-1.7,10.3,0,4.6.3,6.1,1.5,8.5.7,1.4,2.3,3.4,3.1,3.8,1.3.7,4.3.8,5.5.2ZM146.7,155.2c-.2-.4-.4-2.3-.4-6,0-3-.1-7.8-.2-10.7,0-2.9-.1-6.3-.1-7.7,0-1.9,0-2.4-.4-2.6-.4-.2-5.2,2.1-5.5,2.6-.3.5-1.2.3-1.4-.2-.3-.9-.2-3,0-3.6.2-.3,1.4-1.4,2.6-2.3,1.3-.9,2.3-1.8,2.4-1.9,0,0,.9-.6,1.8-1.2,1.4-.9,1.9-1.1,3-1,1.8,0,2.3.2,2.5.9,0,.3.2,7.9.3,16.8.1,13.6.1,16.3-.2,16.7-.3.4-.9.5-2.2.6-1.7.1-1.9,0-2.2-.5ZM175,154.9c-.1-.4-.3-5.7-.4-12-.2-11.8-.3-14.5-.6-14.8-.2-.2-2,.6-5,2.3-1.3.7-1.5.8-1.9.4-.3-.3-.4-.9-.4-2,0-1.5,0-1.6,1.3-2.7.7-.7,1.4-1.2,1.5-1.2s.6-.4,1.1-.8c.5-.5,1.4-1.2,2-1.6.6-.4,1.5-1,1.9-1.4.7-.6,1.1-.7,2.4-.6.9,0,1.8.2,2,.4.6.4.7,4.1.7,20.2,0,11.3,0,14.1-.3,14.3-.2.1-1.2.2-2.2.2-1.7,0-1.9,0-2.1-.6ZM204.1,155.2c-.5-.3-.7-.7-.9-1.4,0-.6-.2-5.5-.2-10.9,0-9.7-.2-13.6-.5-14.6-.2-.6-1-.6-1.5-.1-.2.2-1.4.9-2.7,1.6-2.2,1.2-2.3,1.2-2.7.7-.2-.3-.4-1.2-.4-2.1,0-1.6,0-1.6,1.5-2.8,2.7-2.3,6.4-4.9,7.4-5.2,1.4-.4,3.2,0,3.6.6.5.9.7,33.5.2,33.9-.6.5-3,.7-3.8.3ZM325.9,155.2c-1.3-.4-2.9-1.1-3.5-1.7-1.4-1.1-2.4-2.4-3.1-3.7-.6-1.3-.8-3.7-.2-4.1.4-.3,4.4-.4,4.8-.2.3.2,1.3,1.8,1.4,2.3.3,1.4,2.5,2.8,4.8,3.2,2.1.3,3.6,0,5-1.5,2.2-2.2,2.8-5.3,1.3-7.4-1.6-2.3-2-2.5-5.4-2.9-3.5-.4-3.6-.5-3.6-2.3s.2-1.7.3-1.9c.2-.2,1.2-.7,2.3-.9,4.2-1,6-2.7,6.1-5.6,0-1.4-.5-2.7-1.3-3.3-.3-.2-.7-.5-.9-.8-.4-.4-3.5-1.5-4.3-1.5-.7,0-3.3,1.3-4.1,2.1-.4.4-1,1.3-1.3,2-.3.7-.7,1.4-.9,1.5-.5.3-4.3.3-4.5-.1-.4-.6-.2-2.7.4-3.9,2-4,6.6-6.2,12.4-5.7,2.5.2,4.8.8,4.8,1.2s.2.2.3.2,1.1.7,1.9,1.5c1.3,1.2,1.7,1.8,2.3,3.4.7,2,.9,3.6.5,5.4-.3,1.6-1.6,3.7-2.8,4.6-.6.5-1.1.9-1.1,1.1,0,.3.6.9,1.3,1.3.9.5,2,1.4,2,1.8s.2.4.4.6c.2.2.7,1.2,1,2.2.8,2.3.7,5.6-.2,7.6-1,2.3-3.9,4.7-6.8,5.6-1.4.4-7.9.5-9.3.1ZM385.2,155.2c-.7-.2-1.7-.6-2.3-.9-1.3-.7-3.8-2.9-3.8-3.3s-.1-.4-.2-.5c-.9-.4-3.2-5.2-3.7-7.7-.4-2-.6-9.6-.2-11.3.3-1.6,1.8-5.3,2.2-5.6.1,0,.4-.6.7-1.2.5-1.2,3.1-3.9,4.5-4.7.5-.3,4.3-1.3,5-1.3.9,0,4.1.8,5.1,1.3.4.2,1.6,1.2,2.5,2.1,2.1,2.1,4.1,5.9,4.9,9.2.7,2.9.8,9.2.2,11.8-.6,2.3-1.4,4.5-2,5.5-.3.4-.7,1.1-.9,1.5-.5,1-3.2,3.5-3.7,3.5s-.5.1-.5.3c-.1.4-4.5,1.6-5.6,1.6-.5,0-1.4-.2-2.1-.4ZM389.8,150.7c1.2-.2,2.5-1.5,3.4-3.3,1.3-2.7,1.7-4.8,1.7-9.5,0-4.6-.4-7.2-1.3-9.2-.3-.6-.6-1.3-.6-1.4s-.4-.8-.9-1.6c-2-3-5.8-3.3-8.3-.7-1,1.1-2.3,3.8-2.7,5.6-.2.8-.4,1.7-.6,2-.3.5-.1,8.8.2,10.3.5,2.8,2.9,6.4,5,7.5.8.4,2.7.6,4.2.3ZM224.9,155.1c-.4-.2-.4-.9,0-1.8.1-.3.8-2,1.4-3.7.6-1.7,1.4-3.5,1.7-4,.3-.5.9-2,1.4-3.3.5-1.3,1.1-2.7,1.2-3.2.2-.5.8-1.8,1.2-3,.5-1.2,1.2-2.9,1.5-3.7.4-.8.7-1.5.7-1.6s.3-.7.6-1.4c.3-.7.7-1.6.8-1.9.1-.3.4-.9.5-1.4.3-.6.3-.9,0-1-.4-.2-3.7-.3-10-.2-2.1,0-4.6,0-5.6-.1-1.7-.2-1.8-.2-2-1.1-.2-.8,0-2.5.4-2.9.3-.3,22.2-.2,22.4,0,.1.1.3.8.3,1.5,0,1,0,1.8-.6,3.1-.4,1-.7,1.9-.7,2s-.7,2-1.5,4c-2.9,7.4-4.4,11.3-5,13.1-.3,1-.9,2.4-1.2,3-.9,2.1-2,5-2,5.3s-.3.8-.7,1.4c-.7,1-.7,1-2.6,1-1,0-2,0-2.2-.2ZM304.5,154.6c-.7-.7-.7-1.4-.9-13.4,0-6.2-.2-11.6-.2-12,0-.5-.1-1-.1-1.3,0-.6-.9-.6-1.5-.1-.2.2-1.5.9-2.8,1.6-2.3,1.2-2.5,1.2-2.8.7-.2-.3-.4-1.1-.3-2.1,0-1.6.7-2.7,1.9-3.1.3-.1.5-.3.5-.5s.3-.3.6-.4c.3,0,.9-.5,1.3-.9.4-.4,1.5-1.2,2.6-1.9,1.7-1.1,2-1.2,3.7-1.2,1,0,1.9,0,2,.2.3.5.4,5.3.5,19.4,0,13.1,0,15.1-.3,15.3-.7.4-3.5.3-4-.2ZM350.8,154.8c-3.1-.2-3.3-.4-3.3-2.9v-2l2.7-2.6c1.5-1.4,3.8-3.5,5-4.7,1.3-1.1,2.6-2.4,3-2.9.4-.4,1.1-1.1,1.5-1.5,1-.9,3.2-4.3,3.2-4.9s.1-.5.3-.5.3-.2.3-.5.1-.6.3-.7c.7-.4.1-6.2-.6-6.2s-.2-.1-.2-.3c0-.7-3.2-2.4-4.6-2.5-2.1,0-4.3,2-5.2,4.7-.2.5-.5,1.1-.6,1.2-.2.1-1.2.2-2.3.2-2.4,0-2.7-.3-2.5-2.2.2-1.7,1.5-4.1,2.9-5,.6-.4,1.3-.9,1.6-1.3,1.1-1.1,3.7-1.6,7.4-1.4,3.6.1,4.8.5,6.7,2.3.5.5,1.2,1,1.4,1.1.2.1.8,1.2,1.4,2.3,1,2.3,1.3,4.5.7,6.7-.3,1.2-1.6,3.7-2.6,5.2-.6.8-7.5,7.8-10.9,11-1.7,1.6-2.1,2.3-1.4,2.4.2,0,3.8.1,7.9.2,5,0,7.7.2,8,.4.3.2.3.8.3,2,0,1.5-.2,1.7-.8,2-.5.2-2.9.3-8.4.3-4.2,0-8,0-8.3.1-.3,0-1.7,0-3,0ZM431,154.4c-2.8-.4-3.6-.6-5-1.6-2.5-1.8-4.1-4.1-5.2-7.7-.8-2.4-.8-2.7-.8-8.6s.3-8.2.9-8.2.2-.3.2-.7.1-.8.3-.8c.2,0,.3-.3.3-.5,0-.4,2.2-4.3,2.5-4.6.5-.4,2-1.6,2.5-2,.9-.8,2.4-1.1,5.5-1.2,2.4-.1,3.2,0,4.7.4,3,1,5.1,3.1,6,6,.7,2.2.4,2.4-2.8,2.3h-2.5c0,0-.3-.9-.3-.9-.6-2.1-1.3-3-2.9-3.6-2-.8-4-.3-5.8,1.5-1.5,1.5-2.2,2.7-2.6,4.8-.5,2.6-.5,3.8,0,4,.2,0,.5,0,.6-.1.6-1,4.1-2,6.7-2,1.7,0,4.2.6,4.8,1.1.1.1.4.2.7.2,1,0,3.4,2.6,3.8,4,0,.2.3,1,.7,1.9.8,2.2.9,6.1.2,8-2,5.6-7,8.8-12.5,8.1ZM435.2,149.3c1.2-.6,2.3-1.7,2.3-2.3,0,0,.2-.6.4-1.2.5-1.2.6-5.6.2-5.9-.2,0-.3-.4-.3-.7,0-.6-1.1-2.8-1.4-2.8s-.4-.2-.6-.3c-.5-.5-1.8-1-2.9-1.2-1.1-.2-3.3.8-4.8,2.3-1.5,1.4-2.5,3.7-2.5,5.4,0,.8.2,1.5.3,1.5.1,0,.2.4.2.7s.1.5.3.5.3.2.3.5.2.8.6,1.1.6.7.6.9.3.6.6.9c1.7,1.5,4.4,1.7,6.7.6ZM456.4,154.5c-2.7-.5-5.4-1.9-6.6-3.4-1-1.2-1.7-2.6-1.6-2.8,0-.1,0-.5-.3-.8-.4-.6-.3-2.4.2-2.8.3-.2,4.2-.2,4.8,0,.2,0,.7.8,1,1.6,1.2,2.5,1.8,3.1,4,3.6,2.2.5,3.4.4,5.1-.4,1.2-.6,1.8-1.2,1.8-1.6s.1-.3.3-.3.3,0,.2-.2.2-.9.4-1.7c.7-2.1.4-3.5-.9-5-.6-.7-1.1-1.3-1.1-1.4,0,0-.4-.3-.9-.4-.5-.1-1.1-.3-1.3-.3-.2,0-1.3-.2-2.4-.3-2.8-.2-2.9-.4-2.9-2.3s.4-2.5,1.7-2.5,3.7-.8,4.3-1.2c2.3-1.7,3.2-4.2,2.4-6.3-.6-1.5-1.5-2.3-3.6-3.1-2-.8-2.4-.8-4.1-.2-1.9.7-3,1.7-3.8,3.4-.4.8-.8,1.6-1,1.7-.2.1-1.2.2-2.3.2-2.4,0-2.7-.3-2.5-2.1.3-2.5,2.6-5.4,5-6.5,3.7-1.7,7.1-1.9,11.4-.8,2.2.5,4.7,2.7,5.8,5,1.2,2.6,1,6.7-.6,9-.6.9-2.1,2.3-2.5,2.3-.1,0-.2.1-.2.3,0,.3.3.6,2.2,2,1.6,1.2,3,4.2,3.1,6.9.2,3.6-2,7.4-5.4,9.2-2.9,1.5-7.1,1.8-8.2.6-.7-.7-1-.6-.8.2.2.7.1.7-1.3.5ZM484.1,153.7c-.7,0-1.3-.3-1.3-.5-.2-.4.2-1.9.9-3.3.2-.5.7-1.8,1.2-2.9.5-1.1,1.3-3.1,1.8-4.4.5-1.3,1-2.4,1-2.6s.4-1,.8-2c.5-1,.8-1.9.8-2,0-.2,2.1-5.2,2.5-6,.1-.3.3-.7.3-.9s.1-.4.3-.4.3-.2.3-.4c0-.4.5-1.7,1.4-3.6.2-.3.2-.8.1-1-.2-.5.2-.5-10.3-.4-3.7,0-6.8,0-7-.2-.4-.3-.7-2-.5-2.9,0-.4.4-.8.7-.9.3-.1,5.2-.3,11-.3,12.1-.2,11.5-.3,11.5,2.1s-.2,1.8-.4,2.3c-.2.5-.9,2.4-1.6,4.2-1.1,3.2-1.9,5.3-2.5,6.3-.1.3-.3.6-.3.8s-.7,2-1.5,4.1c-2.1,5.4-3.3,8.5-4.2,10.8-.8,2.2-1.6,3.9-1.8,4-.3.2-2,.3-3.2.2ZM513.2,153.3c-1.1-.3-2.6-.9-3.2-1.2-1.2-.7-2.4-1.6-2.4-1.9s-.4-.5-.8-1c-1.1-1.1-1.9-4.2-1.5-5.2.3-.6.5-.7,2.3-.7s3.3.4,3.3,1.2.4,1,.9,1.8c1.2,1.9,2.5,2.6,4.7,2.7,2.3,0,2.9-.2,4.2-1.6,2.2-2.3,3.1-7.3,1.8-9.9-1.3-2.5-3.2-3.6-6.1-3.6-1.6,0-2.1.1-3.1.9-.7.5-1.6,1.5-2.1,2.2l-.9,1.4h-1.8c-1.5,0-1.9,0-2.1-.5-.1-.3-.3-4.7-.3-9.8,0-8,0-9.4.3-9.8.4-.5,1-.5,10.1-.7,11.2-.1,10.6-.3,10.6,2.5s0,1.7-.7,1.9c-.4.1-3.1.3-6.2.3-6.9,0-8.6.2-8.8.8-.3,1-.3,7.2,0,7.7.2.3.4.3,1,0,.4-.2.7-.4.7-.5,0-.5,2.8-1,5-.9,2.4,0,4.2.6,5.4,1.6.3.3,1.2,1.1,2,1.7.8.7,1.4,1.4,1.4,1.7s.2.6.4.8c1,.8,1.6,7,1,9.4-1.2,4.3-4.2,7.2-9,8.5-2.4.7-3.9.7-6.2,0ZM44,110.5c-.4,0-.9-.3-1-.6-.3-.6-.5-10.9-.7-37.4,0-11.3-.2-23.9-.3-28,0-6.1-.2-21.5-.1-30v-2.1h6.4v1.9c0,1,0,3.9.1,6.4,0,2.5.2,12.2.3,21.5,0,9.3.2,22.6.3,29.6s.2,18.4.2,25.3v12.6c0,0-.6.5-.6.5-.6.5-2.4.7-4.5.3ZM38.5,110.1c-.5-.5-.6-4.8-.7-22.4-.2-17.6-.3-34.3-.6-59.6l-.2-15.7h1.9v9.1c0,5,.1,12.2.2,16,0,3.8.2,15.5.3,26,0,10.5.2,25,.3,32.3.2,12.8,0,14.7-.7,14.7s-.4-.2-.5-.3ZM56.8,110.1c-.2-.2-.4-.6-.4-.9-.2-.8-.5-21.7-.9-73.7l-.2-23.1h1.7v2.3c0,1.3.1,5.5.2,9.3,0,3.9.2,16.7.3,28.4,0,11.7.2,23.7.3,26.6,0,2.9.1,11,.1,18,0,10.4,0,12.8-.4,13.1-.3.3-.4.3-.7,0ZM72.2,110c-.4-.4-.5-1.3-.5-6.6,0-3.4,0-9.4-.1-13.4,0-4-.2-14.9-.3-24.1-.4-40.4-.5-46.6-.5-46.8,0,0,0-1.6,0-3.4v-3.3h5.6v3.7c0,2,.1,4.5.1,5.6,0,1.1.2,11.3.3,22.7,0,11.4.2,24.9.3,29.9.3,19.9.2,35.3-.1,35.7-.2.2-1.2.4-2.3.4-1.7,0-2.1,0-2.5-.4ZM64.4,109.7c-.3-.8-.5-9.8-.8-53.2,0-10-.2-24-.3-31.1v-12.9c-.1,0,.7,0,.7,0,.4,0,.9.2,1,.4,0,.2.2,4.4.2,9.3,0,4.9,0,11.7.1,15,0,3.4.2,15.3.3,26.6,0,11.3.2,25.9.3,32.6,0,6.6,0,12.5,0,12.9-.2,1-1.1,1.2-1.4.4ZM86.3,109.9c-.2-.4-.4-7.5-.6-25-.4-40-.4-46.9-.6-59.4l-.2-13.2h.9q.9.2,1,1.7c0,.8.1,9,.2,18.1.1,9.1.2,21.3.3,27,.5,37.4.5,50.1.1,50.5-.4.5-1,.6-1.2.2ZM92,109.8c-.5-.5-.5-3.5-.7-22.6-.4-38.4-.4-48.3-.6-61.3l-.2-13.5h2v7.5c0,4.2,0,9,.1,10.7,0,1.8.2,11.2.3,20.9.5,58.5.5,58.1.1,58.3-.5.3-.7.3-1-.1ZM97.5,109.6c-.3-.6-.5-8.6-.7-33.8,0-10.3-.2-24.7-.3-32.1,0-7.4-.2-17.4-.2-22.3v-8.9s.9,0,.9,0h.9c0,0,0,4.8,0,4.8,0,2.7,0,7.4.1,10.3.1,5.8.3,23.7.6,59.3.1,18,.1,22.4-.2,22.8-.5.6-.8.5-1.1-.1ZM112,109.9c-.8-.6-.9-1.4-1.1-27.2,0-11.2-.2-22.2-.3-24.5,0-2.3-.1-13.5-.2-24.9V12.5c0,0,.8,0,.8,0h.9c0,0,0,2.8,0,2.8,0,8,.2,20.1.4,36.4.1,9.9.2,21.7.3,26.3.3,20.8.2,31.5-.2,31.9-.2.2-.5.3-.7.2ZM117.2,109.8c-.5-.6-.6-2.3-.7-19.9,0-9.7-.2-21.1-.3-25.5s-.2-17.8-.2-29.9V12.5c0,0,2.7,0,2.7,0h2.8c0,0,0,9.8,0,9.8,0,5.5.1,12,.2,14.5.2,11,.5,50.7.5,61.3,0,10,0,11.6-.4,11.8-.6.4-4.3.3-4.6,0ZM151.1,109.7c-.2-.2-.5-1.1-.6-1.9-.2-1.7-.5-32.3-.8-82.3v-13.2c0,0,2.8,0,2.8,0h2.9v3.5c0,1.9,0,8.4.1,14.3,0,5.9.2,18.2.3,27.3,0,9.1.2,24.4.3,34.1.2,16.3.1,17.6-.3,18.1-.6.6-4.1.7-4.7,0ZM105.9,109.6c-.3-.4-.4-6.9-.5-26-.2-27.9-.4-51.6-.6-61.8v-9.3c-.1,0,.9,0,.9,0h1v2.1c0,2.7.2,35.1.4,45.8.3,17,.5,48.2.3,48.9-.2.7-1.1,1-1.4.4ZM131.3,109.4c-.1-.3-.3-6.5-.4-13.9,0-7.4-.2-17.7-.3-22.8-.1-7.5-.5-51.2-.5-57,0-3.2,0-3.2.9-3.2h.8v4.4c0,2.4,0,7.5.1,11.4.1,7,.2,19,.6,59.6,0,11.4,0,21,0,21.4-.2.8-.9,1-1.2.3ZM139.7,109.4c-.2-.6-.4-10.7-.6-33.5,0-10.1-.2-21.3-.3-24.9s-.1-13.8-.1-22.6v-15.9s.8,0,.8,0h.9c0,0,0,6,0,6,.1,17.4.5,55.3.7,65.3.2,13.2.2,25.2,0,25.7-.2.6-1.1.6-1.3,0ZM145.4,109.3c-.4-.7-.5-4.2-.7-31.3,0-11.8-.2-23.1-.3-25.1,0-2-.1-11.9-.2-22V12.5c0,0,.8,0,.8,0h.9c0,0,0,3.7,0,3.7,0,2.1,0,4.8,0,6,0,1.2.2,12.3.3,24.6.1,12.3.3,26.6.3,31.7.2,16.5.2,30,0,30.7-.2.8-.9.8-1.3,0ZM165.1,109.5c-.3-.3-.4-7-.7-36.3,0-8.3-.5-54.3-.5-59,0-1.7,0-1.8.9-1.8h.8v3.5c0,1.9,0,8.4.1,14.3,0,5.9.2,18.1.3,27,0,8.9.2,24.2.3,34,.1,14.1.1,17.9-.2,18.2-.4.5-.7.5-1.1,0ZM184.6,109.4c-.3-.8-.5-5.5-.6-18.4-.3-31.2-.5-49.9-.6-63.8v-14.9c-.1,0,2.8,0,2.8,0h2.9v4.9c0,2.7,0,9,.1,13.9,0,5,.2,16.7.3,26.2,0,9.4.2,24.8.3,34.1,0,9.3,0,17.3,0,17.7-.2.7-.2.7-2.6.7s-2.5,0-2.6-.4ZM223.7,109.6c-.3-.1-.5-.6-.6-1-.2-.9-.3-12.1-.6-39.5,0-10.2-.2-24.8-.3-32.5,0-7.7-.2-16.2-.2-19v-5s2.9,0,2.9,0h2.9c0,0,0,8.6,0,8.6,0,4.8,0,11.5.1,15,.1,8.9.6,56.3.6,65.6,0,6.5,0,7.7-.4,8-.5.3-3.9.3-4.5,0ZM173.5,109.2c-.3-.7-.5-15.6-.9-72.3l-.2-24.4h1.7v2.4c0,1.3,0,5.7.1,9.8,0,4,.1,15.7.3,25.9.6,55,.6,58.4.3,58.8-.3.5-1.2.4-1.4-.1ZM179,109.1c-.3-.9-.4-3.7-.6-28.5,0-13.3-.2-26.9-.3-30.3,0-5.1-.2-23.9-.2-35.5v-2.4h.8c1,0,1.1.4,1.1,6.3,0,5.2.3,42.5.7,79.5.1,10,0,11.3-.8,11.4-.4,0-.7-.1-.8-.4ZM198.9,109.1c-.1-.3-.3-7.3-.4-15.7-.3-28.8-.5-43-.6-62V12.4c-.1,0,.8,0,.8,0h.9v14.1c0,13.2.2,34.6.5,51.4.2,12.8.2,31.2,0,31.4-.3.4-.9.3-1.2-.2ZM207.4,108.9c-.2-.4-.3-6.3-.4-14.6-.2-19.6-.3-35.5-.6-60.3l-.2-21.5h1.7v3.8c0,2.1,0,7.4.1,11.8,0,7.6.2,14.9.6,60.8,0,10.6,0,19.6,0,20-.2.9-.9.9-1.3,0ZM217.8,109.1c-.3-.7-.4-5.2-.5-28.2,0-11-.2-22.8-.3-26.3,0-3.5-.2-14.4-.2-24.2V12.5s.8,0,.8,0h.9c0,0,0,2.1,0,2.1,0,1.2,0,6.3.1,11.4,0,5.1.2,18.7.3,30.2,0,11.5.2,24.8.3,29.6.2,12.8.2,22.3,0,23.1-.2.8-1.1.9-1.4.2ZM232.7,109c-.4-.7-.5-8.6-.7-38-.3-36.8-.5-55.2-.6-56.8v-1.7c-.1,0,.8,0,.8,0,.7,0,1,.1,1.1.5,0,.3.2,13.4.3,29.3,0,15.8.2,31.1.3,33.9,0,2.8.1,11.4.1,19.1,0,11.2,0,14-.3,14.2-.5.3-.7.3-1-.4ZM241.2,108.9c-.3-.9-.5-10.4-.7-39.7,0-13-.2-24.7-.3-26,0-1.8-.2-24.5-.1-29.8,0-.8,0-.9.8-.9s.8,0,.9.2c.1.8.8,82.4.8,91.3,0,4.8-.2,5.7-.9,5.7s-.4-.3-.5-.7ZM263.1,109.4c-.7-.4-.8-2.4-.9-13.6,0-6.2,0-12.6-.1-14.2,0-4-.5-51-.5-60.9v-8.2s2.7,0,2.7,0c2.7,0,2.8,0,2.8.6,0,.3.1,10.7.2,23.1.1,12.4.2,24.5.3,26.9,0,2.4.1,13.7.2,25,0,17.1,0,20.6-.3,21-.3.3-.8.5-2.2.5-1,0-2-.1-2.2-.2ZM246.6,108.7c-.2-.8-.4-13-.6-35,0-10.1-.2-28-.3-39.8l-.2-21.5h.9s.9,0,.9,0v9.6c0,5.3.2,15.4.3,22.4.5,41,.6,64.2.3,64.7-.3.5-1.2.3-1.4-.3ZM252.4,109c-.4-.6-.5-5.8-.8-45.6,0-8.8-.2-23.9-.3-33.6l-.2-17.5h.8c.8,0,.8,0,1,1.6,0,.9.1,6.5.2,12.4,0,5.9.1,13.8.2,17.4.2,11.6.5,55.5.5,60.2,0,2.5,0,4.7-.2,4.9-.2.5-.9.6-1.1.1ZM275,108.8c-.3-.6-.5-8.4-.7-37.1,0-10.9-.2-21.3-.2-23.1,0-2.6-.2-30.2-.1-35.1,0-1,0-1,.8-1s.8,0,.9,1.3c0,.7,0,4.3.1,8,0,3.7.2,11.8.2,18.1.5,36.3.7,67.7.4,68.7-.2.9-.9,1-1.3.2ZM286.4,109.1c-.2-.1-.4-.5-.5-.8-.1-.7-.3-9-.5-26.7,0-8.1-.2-21.7-.3-30.2,0-8.5-.2-20.7-.3-27.2v-11.8c-.1,0,2.8,0,2.8,0h2.9v3.4c0,1.9.1,6.6.2,10.6,0,4,.2,14.1.2,22.6,0,8.5.2,22.4.3,31,.3,27.1.3,28.5-.3,29-.6.4-3.9.5-4.5.1ZM309.4,109c-.4-.1-.6-.6-.8-1.1-.1-.5-.2-6.9-.3-14.2,0-7.3-.2-17.8-.3-23.4-.1-10-.4-40.7-.5-52v-5.9s2.8,0,2.8,0h2.8s0,7.3,0,7.3c0,4,0,10.2.1,13.8,0,3.6.2,14.8.3,24.9,0,10.1.2,21.9.3,26.2.2,17.2.2,23.7-.1,24.2-.3.5-3.3.6-4.3.3ZM280.4,108.6c-.2-.5-.4-10.1-.6-33.6,0-8-.2-17.7-.2-21.5,0-7.4-.2-29.6-.2-36.8v-4.4h.8c.5,0,.8.1.8.3.2,5.5.3,13,.4,30.3.2,20.4.2,27,.5,51.8.1,12.8,0,14.1-.8,14.2-.4,0-.7-.1-.8-.4ZM300.2,108.4c-.2-.5-.5-19.9-.7-45.3,0-9.3-.4-43.7-.5-48v-2.7s.9,0,.9,0h.9v2.2c0,1.2-.1,2.3-.3,2.4-.2.2-.1.9.1,2.1.3,1.3.4,4.4.4,10.9,0,5,0,12.5.1,16.6,0,4.1.2,14.7.3,23.5,0,8.8.2,21,.3,27,0,7.1,0,11.1-.2,11.4-.4.7-1.1.7-1.3,0ZM328.7,108.7c-.4-.5-.6-5.1-.7-22.9,0-8.8-.2-18.7-.3-22.2,0-3.4-.2-16.4-.3-28.7l-.2-22.5h1.9v13.5c0,7.4.2,15.4.2,17.7,0,5.9.4,31.1.6,48.9,0,8.3,0,15.4,0,15.7-.2.7-.9.9-1.2.5ZM323,108.5c-.4-.6-.5-4.1-.1-4.5.2-.2.2-.4,0-.5-.2,0-.3-6.1-.4-15.5,0-8.5-.2-18.7-.3-22.8-.1-8.5-.5-48-.5-48.6,0-.2,0-1.3,0-2.3v-1.9s.8,0,.8,0c.6,0,.8.1.9.5,0,2.1.3,19.5.4,31.6.2,18,.4,40.5.5,53.7,0,5.4,0,10,0,10.2-.2.5-1.1.5-1.4,0ZM334.1,108c-.2-.9-.3-5.1-.5-25,0-8.6-.2-19.9-.3-25.2,0-5.3-.2-17.6-.3-27.5V12.4c-.1,0,.7,0,.7,0,.4,0,.9.2,1,.4,0,.2.2,5.1.2,10.9,0,5.8,0,13.7.1,17.7,0,4,.2,15.5.3,25.6s.2,20.2.3,22.4c.2,7,.2,18.4,0,18.9-.3.8-1.1.6-1.4-.3ZM342.7,108.5c-.3-.5-.4-11.2-1.1-79l-.2-17.1h.9c0,0,.9.2.9.2v7.8c.1,4.3.2,12.6.3,18.6,0,5.9.2,17.2.3,25.1,0,7.8.2,20.9.3,29,.1,10.9,0,14.9-.1,15.3-.3.6-1,.8-1.3.3ZM348.5,108.5c-.4-.3-.6-6.3-.8-28.7,0-9-.2-21.4-.3-27.6,0-6.2-.2-17.7-.3-25.5l-.2-14.3h1.9v2.3c0,4,.3,42.4.5,50.2.4,25,.5,43.1.1,43.5-.4.5-.5.5-1,.2ZM364.5,108.5c-.6-.4-.8-3.4-.9-16.9,0-7.2-.1-15.1-.1-17.6,0-2.4-.1-12.6-.3-22.6-.1-10-.2-22.8-.3-28.6v-10.5c-.1,0,3.1,0,3.1,0h3.2v12.8c0,7,.1,15.3.2,18.3,0,3,.2,12,.2,19.8,0,7.8.2,20.7.3,28.7,0,7.9,0,14.9,0,15.5l-.2,1.1h-2.3c-1.3.1-2.5,0-2.7-.1ZM368.5,107.7c0-.2,0-.3-.3-.3s-.4.2-.4.4c0,.5.6.4.8-.1ZM398.6,108.5c-.4-.2-.6-.5-.7-1.2-.1-3-.2-7.2-.4-20.3,0-8.1-.2-19.3-.3-24.9,0-5.6-.2-19.1-.3-30l-.2-19.7h5.6v3.7c0,2,0,5.6.1,8,0,2.4.2,12.5.3,22.4,0,10,.2,23.9.3,30.9.1,11.4.2,27.4.1,29.6,0,.5-.1,1-.2,1.2-.3.4-3.6.7-4.4.4ZM358.6,107.4c0-.6,0-1.4-.1-1.7,0-.4-.2-7.5-.2-15.9-.2-15.2-.4-33.5-.6-46.4,0-3.7-.1-12.2-.2-18.8v-12c0,0,.8,0,.8,0,.8,0,.9,0,1,1,0,.6.2,4,.2,7.7,0,6.2,0,14.7.4,43.5.5,41,.5,43,.1,43.5-.2.2-.6.4-.9.4-.4,0-.5-.2-.6-1ZM376.5,108.1c-.2-.5-.4-9.8-.6-31.9-.1-13.7-.3-20.3-.5-20.4-.2-.1-.2-.3,0-.6.2-.2.3-2.4.2-6.5,0-3.4-.2-12.9-.3-21.3l-.2-15.2h1c.9,0,1,0,1,1.2,0,1.8.4,38.6.5,48.9.4,27.9.5,44.1.3,45-.1.8-.3,1-.7,1s-.6-.2-.7-.3ZM382.1,108c-.3-.9-.5-14.1-.9-58.7,0-6.7-.2-17.8-.3-24.6l-.2-12.4h2v4.1c0,2.2,0,8.7.1,14.3.3,23.8.5,42.6.5,59.5v18s-.6,0-.6,0c-.4,0-.7,0-.8-.4ZM387.8,108c-.3-.5-.6-14.3-.8-36.6-.1-14.5-.3-29.2-.5-48.4v-10.6c-.1,0,.8,0,.8,0h1v3.8c0,2.1,0,7.8.1,12.7.3,24,.5,49.5.5,63.7,0,14.6,0,15.8-.4,15.9-.3,0-.6-.1-.7-.4ZM410.5,108.1c-.2-.2-.4-4.6-.5-14.3,0-7.7-.2-18.4-.3-23.8,0-5.4-.2-17.4-.3-26.6,0-9.2-.2-20-.3-23.9v-7.1c-.1,0,.8,0,.8,0h.9v6c0,3.3.1,9.9.2,14.7,0,4.8.2,15.5.3,23.8s.2,18.8.3,23.4c.2,18.5.2,27.3-.1,27.7-.4.5-.6.5-1,0ZM432,108.1c-.2-.3-.4-1.9-.4-4.9-.2-10-.4-21.2-.6-39-.1-10.3-.2-19.5-.3-20.5,0-1.7-.2-29.8-.2-30.8,0-.4.3-.5,2.8-.5h2.8v1.6c0,.9,0,2.7.1,3.9,0,1.3.2,9.3.2,17.9,0,8.5.2,20.7.3,27.1.5,48.2.5,44.6,0,45.1-.6.6-4.3.7-4.9,0ZM444.5,108c-.5-.5-.6-.9-.7-5.9,0-3-.2-12.5-.3-21.2,0-8.7-.2-20.3-.3-25.8,0-5.5-.2-17.4-.3-26.4l-.2-16.4h5.6v2.7c0,1.5.1,3.4.2,4.4,0,.9.1,9.5.2,19,.1,9.5.2,20.7.3,24.8,0,4.1.2,15.8.3,25.9l.2,18.4-.7.5c-.9.6-3.6.6-4.4,0ZM420.8,107.9c-.2-.5-.5-19.6-.8-48,0-7.2-.2-20.8-.3-30.3l-.2-17.2h1.7v2.6c0,1.4,0,3.7.1,5.1,0,1.4.2,10.7.3,20.8s.2,22.5.3,27.7c.3,20.7.4,38,.2,38.8-.2.9-1.1,1.3-1.3.6ZM426.4,107.8c-.3-.8-.5-8.6-.9-49.9,0-6.4-.2-16.8-.3-23.2-.1-9-.1-11.7.2-12,.2-.3.2-.4,0-.4s-.3-1.5-.3-5v-5h1.9v2.8c0,1.6,0,7.2.2,12.5.3,17.3.6,52.9.6,66.7v13.6s-.6,0-.6,0c-.3,0-.7,0-.7-.3ZM495.4,108c-.6,0-1.1-.3-1.3-.5-.4-.5-.5-4.4-.7-18.7,0-6.8-.2-17.1-.3-23-.3-20.9-.4-34.1-.5-43.7v-9.8c0,0,2.8,0,2.8,0h2.9v6c0,3.3,0,8.3.1,11.1,0,2.8.2,12,.3,20.5,0,8.5.2,18.9.3,23.3.4,21.3.4,32.9.1,33.7-.3.7-.5.9-1.1.9s-.9,0-1.1,0c-.2,0-.8,0-1.4,0ZM458.3,107.4c0-.3,0-.7-.1-.9-.1-.6-.4-19.6-.6-34.3-.2-24.5-.4-43.1-.6-51.3v-8.5c-.1,0,.8,0,.8,0h1v8.2c0,4.5,0,10.9.2,14.2,0,3.3.2,13.7.3,23.1,0,9.4.2,22,.3,27.8.2,12.5.2,21.5,0,21.9-.3.5-1.2.3-1.3-.2ZM463.8,106.9c0-.6-.2-7.3-.3-14.9,0-7.6-.2-17-.2-20.8-.1-7.5-.4-31.5-.6-48.4v-10.5c-.1,0,.8,0,.8,0h1v7.3c0,7.6.1,14.3.4,31.4.2,11.3.5,39.9.6,49,0,6.9,0,7.7-.8,7.8-.5,0-.6-.1-.8-1ZM469.4,107.5c-.2-2.4-.2-5.5-.4-16.3-.3-22.7-.4-31.4-.6-49.2,0-9.7-.2-20.3-.3-23.6v-6c0,0,.8,0,.8,0h.9v8.4c0,4.6.1,10.2.2,12.4,0,2.2.2,10.7.3,19,.3,25.9.4,39.9.6,46.9.1,7.6,0,8.7-.9,8.8-.4,0-.6,0-.6-.4ZM478,107.3c-.2-.6-.4-9-.7-40.8-.1-13.8-.3-27.1-.6-45.2v-8.9c-.1,0,.7,0,.7,0,.8,0,.8,0,.9,1.5,0,.8,0,1.8.1,2.3,0,.5.1,10,.3,21.2.1,11.2.2,22.8.3,25.8.3,12.8.5,43.5.3,44.1-.2.9-.9,1-1.3,0ZM488.6,107.6c-.3-.3-.4-5.1-.8-27.5-.1-9.1-.3-18.5-.6-50.7l-.2-17h1.7v3.8c0,2.1.1,4.8.1,6,0,1.2.1,9.6.3,18.7.1,9.1.2,19.3.3,22.8.4,28.5.5,43.3.1,43.7-.4.5-.7.5-1.1,0ZM512,107.4c-.6-.7-.7-3.9-.9-19.3-.2-16.4-.5-42.3-.5-46.4,0-4.3-.2-18.4-.2-24.4v-4.9h5.5v3c0,1.6.1,5.8.2,9.3,0,3.5.1,11.8.2,18.4.1,6.6.2,16.3.3,21.5,0,5.2.2,13.2.3,17.8.1,6.2,0,8.5-.2,8.8-.2.3-.2.5,0,1,.2.4.3,2.6.2,7.9,0,6.1-.1,7.3-.5,7.5-.2.1-1.2.3-2.2.3-1.4,0-1.9-.1-2.3-.5ZM503.2,107c-.1-.4-.2-.9-.2-1.2,0-.3,0-4.7-.1-9.8,0-5.1-.2-14.8-.3-21.6,0-6.8-.2-16.6-.3-21.7,0-5.2-.2-16.4-.3-24.9v-15.4c-.1,0,.7,0,.7,0,1.1,0,1.1,0,1.1,10.1,0,4.6,0,10.2.1,12.6s.2,11.5.3,20.4c0,8.8.2,19.5.3,23.7.2,12.7.2,27.8,0,28.2-.3.6-1,.4-1.3-.3ZM521.2,107.4c-.5-.3-.6-1.7-.7-17.1-.2-17.9-.4-34.3-.6-42.4,0-5.6-.2-24.6-.1-33.2v-2.4h1.7v4.9c0,6.5.3,21.3.7,53.5,0,6.5.2,17.1.3,23.5.2,12.9,0,13.9-1.2,13.1ZM526.9,107.3c-.5-.4-.7-5.1-.9-27.5,0-7.2-.2-16.3-.3-20.4,0-4-.2-16.3-.3-27.2l-.2-19.9h1.7v4.4c0,2.4,0,7.2.1,10.6.1,9.2.4,28.7.6,42.2,0,6.5.2,17.6.3,24.7.1,10.8.1,12.8-.2,13.1-.3.3-.5.2-.8,0ZM536.9,106.2c0-.6-.2-7-.3-14.2,0-7.2-.2-16.8-.3-21.5,0-4.6-.2-15.4-.3-23.8,0-8.5-.2-19.6-.3-24.9v-9.5c-.1,0,.7,0,.7,0,.8,0,.8,0,.9,1.3,0,.7.1,7,.2,14.1,0,7,.1,14.8.2,17.3,0,2.5.2,10.1.3,16.9,0,6.8.2,19.4.3,28,0,8.6,0,16.1,0,16.5-.3,1.4-1.1,1.2-1.3-.3ZM545.6,106.9c-.2-.3-.3-5.7-.4-12.9,0-6.8-.2-16.6-.3-21.6,0-5-.2-16.1-.3-24.6,0-8.5-.2-20-.3-25.4l-.2-9.9h.9c.8,0,.9,0,.9,1.3.1,5.9.2,10.3.4,24.9.1,9.1.2,20.2.3,24.5.3,20.4.5,42.9.3,43.6-.2.8-.9.9-1.2.2ZM553.4,106.8c-.2-.4-.4-5.1-.5-14.2,0-7.5-.2-17.6-.3-22.6,0-5-.2-15-.3-22.3,0-7.3-.2-18.2-.3-24.3l-.2-11h.9c.8,0,.9,0,.9,1.5,0,.8,0,2.6.1,3.9,0,1.4.2,10.9.3,21.2,0,10.3.2,20.6.3,23,.2,9,.5,44.3.3,44.8-.2.8-.8.8-1.2,0ZM566.9,106.6c-.2-.5-.4-5.1-.5-11.8-.3-19.1-.4-31.8-.6-42.8,0-5.9-.2-17.2-.3-25.1l-.2-14.5h6.4v4.6c0,2.6.1,6.1.2,7.8,0,1.8.2,10,.2,18.4,0,8.4.2,19.3.3,24.4.4,28.3.5,38.2.2,39-.3.8-.3.8-2.9.8s-2.6,0-2.9-.8ZM562.2,106.6c-.1-.3-.3-6-.4-12.7-.3-23.2-.5-37.6-.9-69.7v-11.8c-.1,0,.7,0,.7,0,.5,0,.9,0,.9.2.1,1,.4,17.7.7,44.4,0,8.6.2,17.8.3,20.5.2,10,.2,29,0,29.3-.3.5-.9.4-1.2-.2Z"/>
  </g>
</svg>