<svg width="158" height="126" viewBox="0 0 158 126" fill="none" xmlns="http://www.w3.org/2000/svg">
<path d="M66.8583 90.4167C70.1222 93.6805 74.2347 95.2159 79.1958 95.0227C84.1569 94.8294 87.7472 93.033 89.9666 89.6333L133.833 23.8333L68.0333 67.7C64.6389 70.05 62.7797 73.6063 62.456 78.369C62.1322 83.1317 63.5996 87.1475 66.8583 90.4167ZM24.95 125.667C22.0777 125.667 19.4353 125.045 17.0226 123.802C14.61 122.559 12.683 120.7 11.2416 118.225C7.84718 112.089 5.23607 105.726 3.40829 99.1352C1.58051 92.5447 0.666626 85.7219 0.666626 78.6667C0.666626 67.8305 2.72418 57.6472 6.83929 48.1167C10.9544 38.5861 16.5343 30.2958 23.5791 23.2458C30.6291 16.1958 38.9194 10.6159 48.45 6.506C57.9805 2.39611 68.1638 0.33855 79 0.333328C89.7055 0.333328 99.7583 2.35694 109.158 6.40416C118.558 10.4514 126.783 15.9687 133.833 22.956C140.883 29.9381 146.497 38.0978 150.675 47.4352C154.853 56.7725 157.007 66.7913 157.137 77.4917C157.268 84.6722 156.453 91.6909 154.693 98.5477C152.934 105.404 150.223 111.964 146.562 118.225C145.126 120.706 143.202 122.567 140.789 123.81C138.377 125.053 135.729 125.672 132.846 125.667H24.95Z" fill="#CFE92F"/>
</svg>
