<svg width="99" height="147" viewBox="0 0 99 147" fill="none" xmlns="http://www.w3.org/2000/svg">
<path d="M44.2171 143.333C6.92256 83.3311 0 77.173 0 55.1213C0 24.9152 22.0641 0.428574 49.2818 0.428574C76.4995 0.428574 98.5636 24.9152 98.5636 55.1213C98.5636 77.173 91.6411 83.3311 54.3465 143.333C51.8991 147.257 46.6642 147.257 44.2171 143.333ZM49.2818 77.9099C60.6225 77.9099 69.8159 67.7072 69.8159 55.1213C69.8159 42.5354 60.6225 32.3327 49.2818 32.3327C37.9411 32.3327 28.7477 42.5354 28.7477 55.1213C28.7477 67.7072 37.9411 77.9099 49.2818 77.9099Z" fill="#CFE92F"/>
</svg>
