<svg width="139" height="139" viewBox="0 0 139 139" fill="none" xmlns="http://www.w3.org/2000/svg">
<path d="M139 69.5C139 107.892 107.881 139 69.5 139C31.1189 139 0 107.892 0 69.5C0 31.1301 31.1189 0 69.5 0C107.881 0 139 31.1301 139 69.5ZM71.365 22.9798C56.0927 22.9798 46.352 29.4134 38.7031 40.8475C37.7122 42.3289 38.0437 44.3267 39.464 45.4037L49.1881 52.7768C50.6467 53.883 52.725 53.6198 53.8583 52.1822C58.8645 45.8324 62.2972 42.1503 69.917 42.1503C75.6421 42.1503 82.7235 45.835 82.7235 51.3866C82.7235 55.5835 79.2589 57.7388 73.6061 60.9081C67.0137 64.6036 58.2903 69.2032 58.2903 80.7097V81.8306C58.2903 83.6878 59.7961 85.1936 61.6532 85.1936H77.3468C79.2039 85.1936 80.7097 83.6878 80.7097 81.8306V81.4571C80.7097 73.4808 104.022 73.1488 104.022 51.5645C104.022 35.3099 87.1611 22.9798 71.365 22.9798ZM69.5 92.4798C62.3917 92.4798 56.6089 98.2626 56.6089 105.371C56.6089 112.479 62.3917 118.262 69.5 118.262C76.6083 118.262 82.3911 112.479 82.3911 105.371C82.3911 98.2626 76.6083 92.4798 69.5 92.4798Z" fill="#CFE92F"/>
</svg>
