<svg width="139" height="139" viewBox="0 0 139 139" fill="none" xmlns="http://www.w3.org/2000/svg">
<path d="M69.5 0C31.1069 0 0 31.1069 0 69.5C0 107.893 31.1069 139 69.5 139C107.893 139 139 107.893 139 69.5C139 31.1069 107.893 0 69.5 0ZM69.5 26.9032C83.1198 26.9032 94.1613 37.9448 94.1613 51.5645C94.1613 65.1843 83.1198 76.2258 69.5 76.2258C55.8802 76.2258 44.8387 65.1843 44.8387 51.5645C44.8387 37.9448 55.8802 26.9032 69.5 26.9032ZM69.5 123.306C53.0498 123.306 38.3091 115.852 28.4446 104.194C33.7131 94.2734 44.026 87.4355 56.0484 87.4355C56.721 87.4355 57.3936 87.5476 58.0381 87.7438C61.6813 88.9208 65.4925 89.6774 69.5 89.6774C73.5075 89.6774 77.3468 88.9208 80.9619 87.7438C81.6065 87.5476 82.279 87.4355 82.9516 87.4355C94.974 87.4355 105.287 94.2734 110.555 104.194C100.691 115.852 85.9502 123.306 69.5 123.306Z" fill="#CFE92F"/>
</svg>
