<svg width="113" height="123" viewBox="0 0 113 123" fill="none" xmlns="http://www.w3.org/2000/svg">
<path d="M8.71875 104.937C8.71875 109.546 10.5493 113.965 13.8078 117.223C17.0662 120.482 21.4856 122.312 26.0938 122.312H51.0703C51.3583 122.312 51.6345 122.198 51.8382 121.994C52.0418 121.791 52.1562 121.515 52.1562 121.227V71.2734C52.1562 70.9854 52.0418 70.7092 51.8382 70.5056C51.6345 70.3019 51.3583 70.1875 51.0703 70.1875H10.8906C10.3146 70.1875 9.76218 70.4163 9.35488 70.8236C8.94757 71.2309 8.71875 71.7833 8.71875 72.3594V104.937ZM52.1562 60.4141V31.0937H60.8438V60.4141C60.8438 60.7021 60.9582 60.9783 61.1618 61.1819C61.3655 61.3856 61.6417 61.5 61.9297 61.5H99.9375C101.417 61.4999 102.886 61.2475 104.281 60.7534C106.82 59.8521 109.017 58.1877 110.573 55.9884C112.128 53.7891 112.965 51.1625 112.969 48.4687V44.125C112.969 40.6689 111.596 37.3543 109.152 34.9105C106.708 32.4667 103.394 31.0937 99.9375 31.0937H88.9315C88.8369 31.0922 88.7444 31.066 88.6631 31.0178C88.5817 30.9695 88.5144 30.9008 88.4678 30.8185C88.4212 30.7362 88.3968 30.6432 88.3972 30.5486C88.3976 30.454 88.4227 30.3612 88.47 30.2793C90.9835 26.0357 91.7999 20.9987 90.7554 16.1785C89.7109 11.3582 86.8828 7.11094 82.8382 4.28836C78.7936 1.46578 73.8314 0.276537 68.9467 0.959093C64.0621 1.64165 59.616 4.14554 56.5 7.9687C53.384 4.14554 48.9379 1.64165 44.0532 0.959093C39.1686 0.276537 34.2064 1.46578 30.1618 4.28836C26.1172 7.11094 23.2891 11.3582 22.2446 16.1785C21.2001 20.9987 22.0165 26.0357 24.53 30.2793C24.5773 30.3612 24.6024 30.454 24.6028 30.5486C24.6032 30.6432 24.5788 30.7362 24.5322 30.8185C24.4856 30.9008 24.4183 30.9695 24.3369 31.0178C24.2556 31.066 24.163 31.0922 24.0685 31.0937H13.0625C9.6064 31.0937 6.29185 32.4667 3.84802 34.9105C1.40418 37.3543 0.03125 40.6689 0.03125 44.125V48.4687C0.035084 51.1625 0.872046 53.7891 2.42738 55.9884C3.98271 58.1877 6.18027 59.8521 8.71875 60.7534C10.1137 61.2475 11.5827 61.4999 13.0625 61.5H51.0703C51.3583 61.5 51.6345 61.3856 51.8382 61.1819C52.0418 60.9783 52.1562 60.7021 52.1562 60.4141ZM60.8438 20.2344C60.8438 18.0866 61.4806 15.987 62.6739 14.2012C63.8671 12.4154 65.5631 11.0235 67.5474 10.2016C69.5317 9.37969 71.7152 9.16464 73.8217 9.58365C75.9282 10.0027 77.8632 11.0369 79.3819 12.5556C80.9006 14.0743 81.9348 16.0093 82.3538 18.1158C82.7729 20.2223 82.5578 22.4058 81.7359 24.3901C80.914 26.3744 79.5221 28.0704 77.7363 29.2636C75.9505 30.4569 73.8509 31.0937 71.7031 31.0937H60.8438V20.2344ZM40.5204 9.40214C42.0082 9.2955 43.5019 9.49647 44.9085 9.99254C46.3152 10.4886 47.6045 11.2691 48.6962 12.2854C49.7879 13.3017 50.6586 14.532 51.2539 15.8996C51.8492 17.2673 52.1563 18.7428 52.1562 20.2344V31.0937H41.2969C38.4889 31.0865 35.7929 29.9919 33.7746 28.0396C31.7563 26.0873 30.5728 23.4291 30.4723 20.6229C30.3719 17.8167 31.3623 15.0807 33.2358 12.9891C35.1093 10.8974 37.7201 9.61284 40.5204 9.40486V9.40214ZM61.9297 122.312H86.9062C91.5144 122.312 95.9338 120.482 99.1922 117.223C102.451 113.965 104.281 109.546 104.281 104.937V72.3594C104.281 71.7833 104.052 71.2309 103.645 70.8236C103.238 70.4163 102.685 70.1875 102.109 70.1875H61.9297C61.6417 70.1875 61.3655 70.3019 61.1618 70.5056C60.9582 70.7092 60.8438 70.9854 60.8438 71.2734V121.227C60.8438 121.515 60.9582 121.791 61.1618 121.994C61.3655 122.198 61.6417 122.312 61.9297 122.312Z" fill="#CFE92F"/>
</svg>
