<svg width="27" height="31" viewBox="0 0 27 31" fill="none" xmlns="http://www.w3.org/2000/svg">
<path d="M9.3335 14.0833V10.75C9.3335 9.64493 9.77248 8.58513 10.5539 7.80372C11.3353 7.02232 12.3951 6.58334 13.5002 6.58334C14.6052 6.58334 15.665 7.02232 16.4464 7.80372C17.2278 8.58513 17.6668 9.64493 17.6668 10.75V14.0833" stroke="white" stroke-linecap="round" stroke-linejoin="round"/>
<path d="M19.3333 18.0833H7.66667C6.74619 18.0833 6 18.8295 6 19.75V25.5833C6 26.5038 6.74619 27.25 7.66667 27.25H19.3333C20.2538 27.25 21 26.5038 21 25.5833V19.75C21 18.8295 20.2538 18.0833 19.3333 18.0833Z" stroke="white" stroke-linecap="round" stroke-linejoin="round"/>
</svg>
