<svg width="27" height="30" viewBox="0 0 27 30" fill="none" xmlns="http://www.w3.org/2000/svg">
<path d="M2.54818 30C1.89049 30 1.32696 29.7653 0.857583 29.2959C0.388181 28.8265 0.153481 28.2631 0.153481 27.6058V8.91429C0.153481 8.2569 0.388181 7.69351 0.857583 7.22411C1.32696 6.75474 1.89247 6.52005 2.55411 6.52005H6.97995C6.97995 4.70023 7.60242 3.15861 8.84736 1.89518C10.0923 0.631727 11.6213 0 13.4345 0C15.2476 0 16.7985 0.631884 18.0871 1.89565C19.3757 3.15938 20.02 4.70085 20.02 6.52005H24.4459C25.1075 6.52005 25.673 6.75474 26.1424 7.22411C26.6118 7.69351 26.8465 8.2569 26.8465 8.91429V27.6058C26.8465 28.2631 26.6118 28.8265 26.1424 29.2959C25.673 29.7653 25.1095 30 24.4518 30H2.54818ZM8.34481 6.52005H18.6552C18.6552 5.08938 18.1541 3.87252 17.152 2.86947C16.1499 1.8664 14.933 1.36487 13.5014 1.36487C12.0698 1.36487 10.8524 1.86606 9.84938 2.86846C8.84633 3.87086 8.34481 5.08806 8.34481 6.52005ZM13.5087 16.2057C15.2443 16.2057 16.7723 15.5875 18.0926 14.351C19.4128 13.1146 20.0788 11.7307 20.0907 10.1995C20.0907 10.0488 20.0235 9.91287 19.889 9.7918C19.7545 9.67069 19.5841 9.61014 19.3778 9.61014C19.2166 9.61014 19.0685 9.67901 18.9336 9.81675C18.7987 9.95451 18.7203 10.1076 18.6984 10.2759C18.5329 11.5857 17.9567 12.674 16.9699 13.5408C15.983 14.4075 14.8309 14.8409 13.5135 14.8409C12.1961 14.8409 11.0469 14.4075 10.066 13.5408C9.08506 12.674 8.50593 11.5857 8.32861 10.2759C8.30667 10.123 8.22141 9.97384 8.07282 9.82836C7.92419 9.68288 7.77188 9.61014 7.61588 9.61014C7.42858 9.61014 7.26695 9.67069 7.13101 9.7918C6.99507 9.91287 6.9271 10.0488 6.9271 10.1995C6.9271 11.7307 7.58543 13.1146 8.9021 14.351C10.2188 15.5875 11.7543 16.2057 13.5087 16.2057Z" fill="#737373"/>
</svg>
