<svg width="27" height="30" viewBox="0 0 27 30" fill="none" xmlns="http://www.w3.org/2000/svg">
<path d="M2.54802 30C1.89033 30 1.3268 29.7653 0.857422 29.2959C0.388021 28.8265 0.15332 28.2631 0.15332 27.6058V8.91429C0.15332 8.2569 0.388021 7.69351 0.857422 7.22411C1.3268 6.75474 1.89231 6.52005 2.55395 6.52005H6.97979C6.97979 4.70023 7.60226 3.15861 8.8472 1.89518C10.0921 0.631727 11.6212 0 13.4343 0C15.2475 0 16.7983 0.631884 18.087 1.89565C19.3756 3.15938 20.0199 4.70085 20.0199 6.52005H24.4457C25.1074 6.52005 25.6729 6.75474 26.1423 7.22411C26.6117 7.69351 26.8464 8.2569 26.8464 8.91429V27.6058C26.8464 28.2631 26.6117 28.8265 26.1423 29.2959C25.6729 29.7653 25.1093 30 24.4517 30H2.54802ZM8.34465 6.52005H18.655C18.655 5.08938 18.154 3.87252 17.1518 2.86947C16.1497 1.8664 14.9328 1.36487 13.5012 1.36487C12.0696 1.36487 10.8523 1.86606 9.84922 2.86846C8.84617 3.87086 8.34465 5.08806 8.34465 6.52005ZM13.5085 16.2057C15.2442 16.2057 16.7721 15.5875 18.0924 14.351C19.4126 13.1146 20.0787 11.7307 20.0906 10.1995C20.0906 10.0488 20.0233 9.91287 19.8888 9.7918C19.7543 9.67069 19.5839 9.61014 19.3776 9.61014C19.2164 9.61014 19.0684 9.67901 18.9335 9.81675C18.7986 9.95451 18.7201 10.1076 18.6982 10.2759C18.5327 11.5857 17.9566 12.674 16.9697 13.5408C15.9828 14.4075 14.8307 14.8409 13.5133 14.8409C12.1959 14.8409 11.0468 14.4075 10.0658 13.5408C9.0849 12.674 8.50577 11.5857 8.32845 10.2759C8.30651 10.123 8.22125 9.97384 8.07266 9.82836C7.92403 9.68288 7.77172 9.61014 7.61572 9.61014C7.42842 9.61014 7.26679 9.67069 7.13085 9.7918C6.99491 9.91287 6.92694 10.0488 6.92694 10.1995C6.92694 11.7307 7.58527 13.1146 8.90194 14.351C10.2186 15.5875 11.7541 16.2057 13.5085 16.2057Z" fill="#D7FF32"/>
</svg>
