<svg width="30" height="30" viewBox="0 0 30 30" fill="none" xmlns="http://www.w3.org/2000/svg">
<path d="M12.1863 28.3153L12.741 25.9612C12.8347 25.596 13.011 25.2853 13.2701 25.0291C13.5292 24.7729 13.8512 24.6264 14.2362 24.5897L19.5554 24.1632C19.9248 24.1255 20.2681 24.1966 20.5854 24.3766C20.9027 24.5566 21.1308 24.8216 21.2696 25.1716L21.8788 26.8046C22.9889 26.1334 23.9853 25.3426 24.8679 24.4323C25.7505 23.522 26.4912 22.4899 27.0899 21.3362L26.6274 21.0561C26.2965 20.8329 26.0605 20.5563 25.9193 20.2262C25.7782 19.8961 25.7486 19.5535 25.8306 19.1985L27.0194 13.9589C27.0966 13.6139 27.2717 13.3325 27.5448 13.1147C27.8178 12.8968 28.1262 12.7765 28.4698 12.7538C28.3334 12.0313 28.1543 11.3277 27.9327 10.643C27.7111 9.95828 27.4285 9.28859 27.085 8.63388C26.8431 8.77818 26.5788 8.84974 26.292 8.84856C26.0053 8.84739 25.7374 8.75992 25.4884 8.58617L20.9904 5.86759C20.6849 5.67186 20.4617 5.40734 20.3208 5.07404C20.1799 4.74071 20.1493 4.38532 20.229 4.00789L20.6037 2.558C19.7136 2.14305 18.7999 1.84001 17.8627 1.64887C16.9255 1.45774 15.9722 1.36217 15.0029 1.36217C14.592 1.36217 14.1783 1.37743 13.7616 1.40795C13.345 1.43846 12.9448 1.48219 12.561 1.53914L13.8198 4.45994C13.967 4.8176 13.9996 5.18092 13.9175 5.54989C13.8355 5.91889 13.652 6.22267 13.3671 6.46124L9.35297 9.97279C9.06306 10.199 8.73148 10.328 8.35822 10.3597C7.98494 10.3915 7.63303 10.3082 7.30249 10.1098L3.44213 7.76705C2.74752 8.85499 2.22721 10.0123 1.88119 11.2391C1.53518 12.4659 1.36217 13.7195 1.36217 15C1.36217 15.4788 1.4177 16.2143 1.52877 17.2064L5.27595 16.8424C5.67323 16.8008 6.03302 16.8788 6.35533 17.0766C6.67763 17.2743 6.92379 17.5472 7.09382 17.8953L9.09659 22.7798C9.24901 23.116 9.28752 23.4611 9.21212 23.8149C9.13675 24.1687 8.95214 24.4705 8.65828 24.7201L7.08865 26.0854C7.83489 26.6521 8.63667 27.1185 9.49399 27.4848C10.3513 27.8511 11.2488 28.1279 12.1863 28.3153ZM15.2787 20.9849C14.8925 21.0222 14.5427 20.9465 14.2295 20.7577C13.9162 20.5689 13.6896 20.2963 13.5496 19.9398L11.2215 14.6516C11.0815 14.2983 11.0626 13.9431 11.1649 13.5859C11.2672 13.2287 11.4698 12.9402 11.7728 12.7204L16.1241 9.01071C16.3764 8.73869 16.6889 8.59908 17.0617 8.59189C17.4344 8.58472 17.7796 8.67227 18.0971 8.85453L22.8693 11.6883C23.1766 11.8833 23.412 12.1514 23.5757 12.4925C23.7394 12.8336 23.7792 13.1899 23.6952 13.5614L22.3643 19.1145C22.277 19.4732 22.102 19.7748 21.8393 20.0191C21.5766 20.2635 21.2769 20.4038 20.9402 20.4401L15.2787 20.9849ZM15.0095 30C12.9347 30 10.9827 29.6062 9.15333 28.8186C7.32397 28.031 5.73268 26.9621 4.37947 25.6119C3.02626 24.2617 1.95805 22.6752 1.17483 20.8524C0.391609 19.0296 0 17.082 0 15.0095C0 12.9347 0.393807 10.9827 1.18142 9.15333C1.96904 7.32397 3.03792 5.73268 4.38808 4.37947C5.73827 3.02626 7.32477 1.95805 9.14757 1.17483C10.9704 0.391608 12.918 0 14.9905 0C17.0653 0 19.0173 0.393808 20.8467 1.18142C22.676 1.96901 24.2673 3.03789 25.6205 4.38808C26.9737 5.73827 28.042 7.32477 28.8252 9.14757C29.6084 10.9704 30 12.918 30 14.9905C30 17.0653 29.6062 19.0173 28.8186 20.8467C28.031 22.676 26.9621 24.2673 25.6119 25.6205C24.2617 26.9737 22.6752 28.042 20.8524 28.8252C19.0296 29.6084 17.082 30 15.0095 30Z" fill="#D7FF32"/>
</svg>
