<svg width="36" height="36" viewBox="0 0 36 36" fill="none" xmlns="http://www.w3.org/2000/svg">
<circle opacity="0.3" cx="18" cy="18" r="18" fill="#F7F7F7"/>
<path opacity="0.5" d="M11.4201 25.1564C11.2913 25.1564 11.189 25.1172 11.1134 25.0387C11.0378 24.9603 11 24.8542 11 24.7206C11 24.587 11.0378 24.478 11.1134 24.3936C11.189 24.3092 11.2913 24.267 11.4201 24.267H12.6742V15.447C12.6742 14.026 13.1098 12.7639 13.981 11.6604C14.8522 10.5569 15.9633 9.87359 17.3143 9.6104V9.08986C17.3143 8.78155 17.4145 8.52283 17.6148 8.31371C17.8152 8.10457 18.0628 8 18.3576 8C18.6523 8 18.9004 8.10457 19.1016 8.31371C19.3029 8.52283 19.4035 8.78155 19.4035 9.08986V9.61744C20.7602 9.87594 21.8758 10.5569 22.7505 11.6604C23.6252 12.7639 24.0626 14.026 24.0626 15.447V24.267H25.3072C25.4242 24.267 25.525 24.3095 25.6097 24.3946C25.6945 24.4796 25.7368 24.5889 25.7368 24.7226C25.7368 24.8562 25.6959 24.9619 25.6139 25.0397C25.5319 25.1175 25.4266 25.1564 25.2977 25.1564H11.4201ZM18.3553 28C17.8925 28 17.4946 27.8268 17.1616 27.4804C16.8287 27.1341 16.6623 26.7218 16.6623 26.2437H20.0556C20.0556 26.7253 19.8879 27.1385 19.5526 27.4831C19.2173 27.8277 18.8182 28 18.3553 28Z" fill="#F7F7F7"/>
</svg>
