<svg width="7" height="13" viewBox="0 0 7 13" fill="none" xmlns="http://www.w3.org/2000/svg">
<path d="M5.83857 6.5044L0.160092 1.31702C0.0555602 1.23187 0.00274501 1.1231 0.00164694 0.990723C0.000548869 0.858325 0.0545158 0.746373 0.163548 0.654865C0.272579 0.553277 0.39707 0.501669 0.53702 0.500041C0.67697 0.498413 0.806845 0.545118 0.926642 0.640156L6.70436 5.90284C6.79186 5.99665 6.86301 6.08911 6.91781 6.18025C6.9726 6.27138 7 6.37943 7 6.5044C7 6.6193 6.97232 6.72553 6.91697 6.82308C6.86161 6.92063 6.7895 7.00984 6.70065 7.09072L0.925383 12.3488C0.819688 12.445 0.69355 12.4953 0.546968 12.4997C0.400386 12.5041 0.272579 12.4555 0.163548 12.354C0.0545158 12.2524 0 12.1384 0 12.0121C0 11.8857 0.0550217 11.7724 0.165065 11.6722L5.83857 6.5044Z" fill="#D7FF32"/>
</svg>
