<svg width="98" height="188" viewBox="0 0 98 188" fill="none" xmlns="http://www.w3.org/2000/svg">
<path d="M21.401 128.764L8.54642 150.687C7.91247 151.765 6.98215 152.471 5.75547 152.805C4.52863 153.139 3.3752 152.99 2.29517 152.357C1.21514 151.724 0.507874 150.795 0.173351 149.571C-0.161172 148.346 -0.0115374 147.194 0.622255 146.116L45.3138 69.0583C39.5146 64.2879 35.1945 59.3535 32.3537 54.2549C29.5127 49.1565 28.0922 43.4485 28.0922 37.131C28.0922 33.1694 28.5236 29.2283 29.3865 25.3077C30.2493 21.3873 31.6963 17.1122 33.7272 12.4824C34.1733 11.2518 35.0009 10.4108 36.21 9.95944C37.4192 9.50827 38.5637 9.59916 39.6438 10.2321C40.7238 10.865 41.4311 11.8144 41.7656 13.0801C42.1003 14.346 42.0621 15.6119 41.6511 16.8777C40.1838 20.4525 39.0832 23.8603 38.3495 27.1012C37.6159 30.3419 37.2491 33.4156 37.2491 36.3224C37.2491 42.5226 38.8515 48.0225 42.0563 52.8221C45.2611 57.6217 50.3501 62.0961 57.3232 66.2453L76.3409 77.4268C83.6897 81.74 89.1367 87.1638 92.682 93.6982C96.2273 100.232 98 106.588 98 112.765C98 116.644 97.5597 120.574 96.6791 124.553C95.7987 128.532 94.1847 133.012 91.8369 137.993C91.2733 139.142 90.3869 139.942 89.1778 140.393C87.9687 140.845 86.8064 140.754 85.6912 140.121C84.6111 139.488 83.8951 138.538 83.543 137.273C83.1908 136.007 83.2788 134.723 83.807 133.422C85.5092 129.578 86.7565 126.094 87.5488 122.971C88.3413 119.847 88.7376 116.597 88.7376 113.222C88.7376 109.049 87.7867 104.912 85.8848 100.81C83.9831 96.7074 80.6257 92.6755 75.8125 88.7139L19.3584 185.708C18.7244 186.787 17.7941 187.493 16.5674 187.827C15.3406 188.161 14.1871 188.011 13.1071 187.379C12.0271 186.746 11.3198 185.817 10.9853 184.592C10.6508 183.367 10.8004 182.215 11.4342 181.137L36.615 137.554L21.401 128.764ZM78.9823 64.3464C74.6505 64.3464 70.9848 62.8491 67.9854 59.8545C64.986 56.8599 63.4863 53.2002 63.4863 48.8752C63.4863 44.5502 64.986 40.8904 67.9854 37.8957C70.9848 34.9012 74.6505 33.404 78.9823 33.404C83.314 33.404 86.9796 34.9012 89.979 37.8957C92.9784 40.8904 94.4781 44.5502 94.4781 48.8752C94.4781 53.2002 92.9784 56.8599 89.979 59.8545C86.9796 62.8491 83.314 64.3464 78.9823 64.3464ZM61.0211 23.9101C57.6402 23.9101 54.7992 22.7439 52.4983 20.4114C50.1974 18.0791 49.047 15.2603 49.047 11.9549C49.047 8.5795 50.215 5.74316 52.5512 3.44589C54.8874 1.14862 57.7107 0 61.0211 0C64.402 0 67.243 1.16614 69.5439 3.49845C71.8448 5.83092 72.9952 8.64974 72.9952 11.9549C72.9952 15.3305 71.7978 18.1669 69.4029 20.4642C67.0081 22.7615 64.2142 23.9101 61.0211 23.9101Z" fill="#737373"/>
</svg>
