<svg width="30" height="30" viewBox="0 0 30 30" fill="none" xmlns="http://www.w3.org/2000/svg">
<mask id="mask0_1387_1904" style="mask-type:alpha" maskUnits="userSpaceOnUse" x="0" y="0" width="30" height="30">
<rect width="30" height="30" fill="#D7FF32"/>
</mask>
<g mask="url(#mask0_1387_1904)">
<path d="M15.0002 16.7502L8.87515 22.8752C8.64599 23.1043 8.35432 23.2189 8.00015 23.2189C7.64599 23.2189 7.35432 23.1043 7.12515 22.8752C6.89599 22.646 6.7814 22.3543 6.7814 22.0002C6.7814 21.646 6.89599 21.3543 7.12515 21.1252L13.2502 15.0002L7.12515 8.87515C6.89599 8.64599 6.7814 8.35432 6.7814 8.00015C6.7814 7.64599 6.89599 7.35432 7.12515 7.12515C7.35432 6.89599 7.64599 6.7814 8.00015 6.7814C8.35432 6.7814 8.64599 6.89599 8.87515 7.12515L15.0002 13.2502L21.1252 7.12515C21.3543 6.89599 21.646 6.7814 22.0002 6.7814C22.3543 6.7814 22.646 6.89599 22.8752 7.12515C23.1043 7.35432 23.2189 7.64599 23.2189 8.00015C23.2189 8.35432 23.1043 8.64599 22.8752 8.87515L16.7502 15.0002L22.8752 21.1252C23.1043 21.3543 23.2189 21.646 23.2189 22.0002C23.2189 22.3543 23.1043 22.646 22.8752 22.8752C22.646 23.1043 22.3543 23.2189 22.0002 23.2189C21.646 23.2189 21.3543 23.1043 21.1252 22.8752L15.0002 16.7502Z" fill="#D7FF32"/>
</g>
</svg>
